<?xml version="1.0" encoding="UTF-8"?>
<svg id="Layer_1" data-name="Layer 1" xmlns="http://www.w3.org/2000/svg" viewBox="0 0 260.38 61.64">
  <defs>
    <style>
      .cls-1 {
        fill: #9aff00;
      }

      .cls-2 {
        fill: #005155;
      }

      .cls-3 {
        fill: #fff;
      }
    </style>
  </defs>
  <path class="cls-2" d="M40.45,36.58c-4.89,2.28-9.05,6.76-10.53,11.91h-2.09c1.98-6.91-1.58-12.6-8.04-13.42-.95,3.68-1.5,7.4-1.5,10.92,0,9.08,4.9,10.3,7.64,10.3,9.58,0,16.09-11.32,17.92-16.85,1.48-4.64-3.25-2.93-3.4-2.87Z"/>
  <path class="cls-2" d="M40.69,53.14c-4.11,0-7.35,4.47-15.85,4.47s-17.5-7.28-17.5-18.44c0-1.38.14-2.78.4-4.19H0v15.74c0,6.04,4.89,10.93,10.93,10.93h32.25c.34-1.03.77-2.45.77-4.6,0-1.95-.52-3.89-3.26-3.89Z"/>
  <path class="cls-2" d="M51.93,44.06c-4.68,11.59-6.29,15.68-7.08,17.58h5.86c6.04,0,10.93-4.89,10.93-10.93v-15.74h-4.19c-1.66.8-3.15,3.19-5.52,9.09Z"/>
  <path class="cls-2" d="M50.71,0H10.93C4.89,0,0,4.89,0,10.93v21.96h8.22C12.03,18.69,27.77,4.44,43.57,4.44c6.56,0,9.44,4.18,14.05,4.18,1.45,0,2.69-.53,3.42-1.21-1.47-4.3-5.54-7.41-10.34-7.41Z"/>
  <path class="cls-2" d="M52.6,28.24c.47-1.33,1.49-3.79,1.49-8.25,0-9.29-3.53-14.41-10.44-14.41-8.77,0-18.87,13.06-23.2,27.18,6.93-.81,13.76-6.5,15.74-13.42h2.09c-2.14,7.47,2.18,13.52,9.65,13.52h0s13.72,0,13.72,0V10.93c0-.08-.01-.16-.01-.24l-7.35,17.56h-1.67Z"/>
  <path class="cls-1" d="M43.57,4.44c-15.8,0-31.55,14.25-35.36,28.44h10.56c.55,0,1.11-.04,1.66-.11,4.33-14.12,14.43-27.18,23.2-27.18,6.92,0,10.44,5.11,10.44,14.41,0,4.46-1.03,6.92-1.49,8.25h1.67l7.35-17.56c-.03-1.15-.23-2.25-.58-3.28-.74.68-1.97,1.21-3.42,1.21-4.61,0-7.49-4.18-14.05-4.18Z"/>
  <path class="cls-1" d="M57.45,34.97h-10.13c-.45,0-.9.02-1.35.07l1.45.96-1.44,6.72s-3.64,1.47-2.13-3.25c0,0,0,0,0,0-1.82,5.52-8.34,16.85-17.92,16.85-2.74,0-7.64-1.23-7.64-10.3,0-3.53.55-7.24,1.5-10.92-.52-.07-1.05-.11-1.61-.11H7.75c-.26,1.41-.4,2.81-.4,4.19,0,11.17,8.72,18.44,17.5,18.44s11.74-4.47,15.85-4.47c2.74,0,3.26,1.95,3.26,3.89,0,2.16-.43,3.57-.77,4.6h1.67c.79-1.9,2.4-5.99,7.08-17.58,2.37-5.89,3.85-8.29,5.52-9.09Z"/>
  <polygon class="cls-1" points="47.32 34.97 57.45 34.97 61.64 34.97 61.64 32.88 47.92 32.88 47.32 34.97"/>
  <polygon class="cls-1" points="18.18 34.97 18.78 32.88 8.22 32.88 0 32.88 0 34.97 7.75 34.97 18.18 34.97"/>
  <path class="cls-1" d="M19.79,35.08c6.46.81,10.02,6.5,8.04,13.42h2.09c1.48-5.15,5.64-9.63,10.53-11.91,0,0-.01,0-.01,0l-.37-1.84,3.69-1.17,2.21,1.46c.45-.04.9-.07,1.35-.07l.6-2.09h0c-7.47,0-11.79-6.06-9.65-13.53h-2.09c-1.98,6.92-8.81,12.61-15.74,13.42-.55.06-1.11.11-1.66.11h0s-.6,2.09-.6,2.09c.56,0,1.09.04,1.61.11Z"/>
  <path class="cls-1" d="M43.75,33.58l-3.69,1.17.37,1.84s.01,0,.01,0c.15-.05,4.88-1.76,3.4,2.87,0,0,0,0,0,0-1.5,4.72,2.13,3.25,2.13,3.25l1.44-6.72-1.45-.96-2.21-1.46Z"/>
  <path class="cls-3" d="M105.09,23.88c1.14-2.94,2.2-3.91,4.31-3.91.49,0,.8.01,1.23.02v-.48h-12.02v.49c1.39,0,2.43.41,2.43,2.02,0,.94-.34,2.23-.97,3.85l-1.59,4.12h4.27l2.34-6.11Z"/>
  <path class="cls-3" d="M102.86,39.34c-1.88,0-2.51-.88-2.51-1.88,0-.74.37-2.17.86-3.45l1.22-3.19h-4.27l-.57,1.48c-2.03,5.19-3.08,7.08-6.05,7.08h0v.48h0s18,0,18,0c.6,0,.77-.26.88-.6s1.28-3.68,2.08-5.68c.47-1.18.89-2.13,1.16-2.76h-.53c-1.62,4.3-6.5,8.53-10.28,8.53Z"/>
  <path class="cls-3" d="M119.35,31.1c0,1.57-1.34,4.71-2.28,6.28-.76,1.32-1.69,1.98-3.36,1.99v.49h9.49v-.48h-.65c-.88,0-1.17-.37-1.17-.91,0-.8,1.31-4.25,2.43-6.59.17-.4.39-.73.64-1.05h-5.11c0,.09.01.19.01.28Z"/>
  <path class="cls-3" d="M133.02,21.4c.59-.65,1.18-1.01,1.8-1.2,0,0-.01,0-.02,0-.85.24-.46-.28-.46-.28l.88-.07v-.33h-4.89v.49h.64c.69,0,1.17.29,1.17.74,0,.48-.17.97-1.46,2.34l-5.28,5.65c-.74.8-1,.94-1.17.94-.26,0-.46-.23-.74-1.26l-1.43-5.34c-.49-1.94-.06-3.11,1.26-3.11.09,0,.18,0,.28,0v-.46h-9.54v.5c1.7.06,2.47.81,3.07,2.73l1.74,5.82c.18.57.29,1.04.37,1.43h5.92l7.87-8.6Z"/>
  <path class="cls-3" d="M133.97,32.29c-1.98,5.08-3.04,6.99-5.86,7.07v.49h12.06v-.48h-1.09c-1.54,0-2.34-.8-2.34-2.05,0-.83.23-1.65.86-3.31l.94-2.45c.13-.33.29-.58.5-.74h-4.49l-.57,1.48Z"/>
  <path class="cls-3" d="M135.52,19.82l1.22-.02-.5.37s-.04-.01-.11-.03c.78.22,1.29.75,1.29,1.88,0,.94-.34,2.23-.97,3.85l-1.59,4.12h5.01c-.14-.04-.24-.09-.31-.15-.2-.2-.17-.49.14-1.26l1.37-3.68c1.08-2.94,1.88-4.94,4.59-4.94,2.14,0,3.42,1.37,3.42,3.82,0,2.97-2.05,5.59-5.23,6.2h4.11c2.82-.89,5.38-2.8,5.38-6,0-2.77-2.43-4.48-7.08-4.48h-11.05v.33l.3-.02Z"/>
  <path class="cls-3" d="M159.09,29.69c0-.26.79-2.27,1.19-3.3,1.67-4.35,2.78-6.14,4.83-6.36v-.51h-9.78v.51c1.11.11,1.9.6,1.9,2,0,.94-.34,2.23-.97,3.85l-1.59,4.12h4.6c-.13-.09-.17-.21-.17-.3Z"/>
  <path class="cls-3" d="M173,26.39c1.72-4.46,2.78-6.22,5.01-6.38v-.5h-9.79v.52c1.38.14,1.76.91,1.76,1.88,0,.74-.82,3.61-2.19,6.84-.22.53-.61,1.01-1.33,1.24h5.17l1.38-3.6Z"/>
  <path class="cls-3" d="M153.77,32.29c-1.99,5.09-3.04,7-5.88,7.07v.49h10.16v-.55c-1.21-.21-1.55-.93-1.55-1.85,0-.74.34-2.11.86-3.45l.52-1.44c.51-1.34,1.4-1.71,2.43-1.71h5.31c.86,0,.97.34.97.66,0,.26-.06.57-.23,1.03l-.15.44c-1.64,4.21-2.95,6.02-5.04,6.33v.54h10.46v-.47h-.06c-1.88-.01-2.34-.84-2.34-1.92,0-.74.34-2.11.86-3.45l1.22-3.19h-16.97l-.57,1.48Z"/>
  <path class="cls-3" d="M175.85,32.61c0,4.74,4.02,7.62,8.28,7.62,2.68,0,5.28-1.14,7.13-3,.63-.63,1.06-1.28,1.06-1.71,0-.29-.14-.51-.49-.51-.77,0-1.46,1.17-2.8,2.51-1.28,1.28-2.65,2.14-4.17,2.14-3.37,0-4.59-2.6-4.59-5.59,0-1,.17-2.11.47-3.25h-4.69c-.12.6-.2,1.2-.2,1.79Z"/>
  <path class="cls-3" d="M190.52,19.6c2.05,0,3.4,1.06,3.4,2.8,0,2.97-4.05,2.65-4.05,5.14,0,.8.57,1.48,1.63,1.48,1.83,0,3.6-2.17,3.6-4.99s-1.26-4.85-4.88-4.85c-6.57,0-12.43,5.44-13.96,10.82h4.74c1.57-5.03,5.56-10.39,9.53-10.39Z"/>
  <path class="cls-3" d="M203.36,39.34c-1.88,0-2.51-.88-2.51-1.88,0-.74.37-2.17.86-3.45l1.22-3.19h-4.27l-.57,1.48c-1.92,4.92-2.97,6.86-5.59,7.06v.5h17.55c.6,0,.77-.26.88-.6s1.28-3.68,2.08-5.68c.46-1.18.89-2.13,1.16-2.76h-.53c-1.62,4.3-6.5,8.53-10.28,8.53Z"/>
  <path class="cls-3" d="M205.58,23.88c1.14-2.94,2.2-3.91,4.31-3.91.42,0,.71,0,1.05.02v-.47h-11.18v.53c1.04.13,1.77.63,1.77,1.98,0,.94-.34,2.23-.97,3.85l-1.59,4.12h4.27l2.34-6.11Z"/>
  <path class="cls-3" d="M237.87,20.05c-.12,0-.24.03-.36.06.12-.03.24-.05.36-.06Z"/>
  <path class="cls-3" d="M229.32,34.35c-1.63,3.79-3.94,5.25-6.68,5.25-1.97,0-3.17-1.26-3.17-3.14,0-1.48.43-2.82,1.4-5.14l.21-.51h-4.48c-.83,1.98-1.33,3.52-1.33,4.62,0,3.11,2.4,4.82,6.59,4.82s6.68-1.83,8.53-6.62l1.08-2.82h-.75c-.5,1.33-1,2.57-1.42,3.53Z"/>
  <path class="cls-3" d="M224.07,23.76c1.27-3,1.96-3.75,4.42-3.76v-.49h-10.76v.52c1.61.14,2.14.87,2.14,2,0,.91-.4,2.05-.94,3.34l-1.98,4.63h4.48l2.63-6.23Z"/>
  <path class="cls-3" d="M233.89,24.56c1.14-2.96,2.33-4.1,3.6-4.44-.05.01-.1.02-.15.04-.68.25.3-.33.3-.33l.28-.06v-.26h-6.31v.5c1.28.09,1.66.58,1.66,1.84,0,1.61-1.07,5.03-2.21,8.14h.75l2.08-5.43Z"/>
  <path class="cls-3" d="M248.07,32.87c0,3.74-2.94,6.51-5.76,6.51-2.34,0-2.88-.86-2.88-1.91,0-.74.37-2.17.86-3.45l.93-2.26c.17-.43.36-.73.6-.93h-4.58l-.57,1.48c-1.91,4.89-2.95,6.84-5.54,7.06v.51l13.36.03c5.45,0,8.13-3.34,8.13-6.02,0-1.55-.78-2.46-2.04-3.05h-3.31c.49.35.82.98.82,2.05Z"/>
  <path class="cls-3" d="M238.75,19.6l.35.33-.35.2s-.12-.03-.31-.06c.99.15,1.67.66,1.67,1.96,0,.94-.31,2.17-.97,3.85l-1.59,4.12h5.18c-.39-.09-.57-.24-.57-.52,0-.11.03-.26.08-.43l1.44-3.82c1.2-3.08,2-5.25,4.51-5.25,1.37,0,2.71,1,2.71,3.02s-1.94,6.31-5.28,7h3.44c3.15-1.01,5.95-3.62,5.95-6.46,0-2.43-2.23-4.02-5.88-4.02h-11.21v.26l.83-.17Z"/>
  <path class="cls-3" d="M88.62,30.86v.72l-.56.58s.02-.07.03-.16c-.36,1.81-3.07,7.27-7.26,7.27-1.08,0-3.02-.49-3.02-4.08,0-1.39.22-2.84.59-4.29-.28-.05-.57-.08-.88-.08h-3.87c-.1.56-.17,1.11-.17,1.66,0,4.42,3.45,7.3,6.93,7.3s4.65-1.77,6.28-1.77c1.08,0,1.29.77,1.29,1.54,0,1.01-.24,1.62-.38,2.04h.64c.28-.65.84-2.1,2.9-7.18.94-2.34,1.53-3.29,2.19-3.6h-4.27c-.15,0-.3.03-.45.04Z"/>
  <path class="cls-3" d="M92.06,28.15l3.74-8.92h-.55c-.1.18-.23.4-.46.64-.29.29-.8.51-1.4.51-1.83,0-2.97-1.65-5.56-1.65-6.26,0-12.49,5.64-14,11.27h3.93c.31,0,.62-.04.92-.09,1.72-5.57,5.71-10.72,9.17-10.72,2.74,0,4.14,2.03,4.14,5.71,0,1.77-.41,2.74-.59,3.27h.66Z"/>
  <polygon class="cls-3" points="89.06 30.82 93.33 30.82 98.16 30.82 102.43 30.82 113.14 30.82 113.67 30.82 119.34 30.82 124.45 30.82 134.54 30.82 139.03 30.82 154.34 30.82 171.31 30.82 176.05 30.82 180.74 30.82 198.65 30.82 202.93 30.82 213.64 30.82 214.16 30.82 216.61 30.82 221.09 30.82 230.74 30.82 231.49 30.82 237.23 30.82 241.81 30.82 247.25 30.82 250.56 30.82 255.75 30.82 255.75 29.99 249.06 29.99 245.61 29.99 242.72 29.99 237.54 29.99 231.8 29.99 231.05 29.99 221.44 29.99 216.95 29.99 203.24 29.99 198.97 29.99 180.99 29.99 176.25 29.99 171.63 29.99 166.46 29.99 159.26 29.99 154.66 29.99 147.97 29.99 143.86 29.99 139.87 29.99 134.86 29.99 125.16 29.99 119.24 29.99 102.75 29.99 98.48 29.99 89.3 29.99 89.06 30.82"/>
  <polygon class="cls-3" points="77.76 29.99 73.82 29.99 69.76 29.99 69.76 30.82 73.65 30.82 77.52 30.82 77.76 29.99"/>
  <path class="cls-3" d="M77.76,29.99l-.24.83c.31,0,.6.03.88.08,2.4.43,3.7,2.62,2.94,5.28h.83c.68-2.36,2.78-4.34,5.1-5.05-.06.01-.1,0-.16.03-1.38.42.44-.99.44-.99l1.07.3v.4c.15-.01.3-.04.45-.04l.24-.83h0c-2.96,0-4.67-2.4-3.82-5.36h-.83c-.76,2.65-3.32,4.84-5.97,5.27-.31.05-.62.09-.92.09h0Z"/>
  <path class="cls-3" d="M237.87,20.05c.22-.02.42,0,.57.02.19.02.31.06.31.06l.35-.2-.35-.33-.83.17-.28.06s-.98.58-.3.33c.05-.02.1-.03.15-.04,0,0,.01,0,.02,0,.12-.03.24-.05.36-.06Z"/>
  <path class="cls-3" d="M136.13,20.14c.07.02.11.03.11.03l.5-.37-1.22.02-.3.02-.88.07s-.39.53.46.28c0,0,.01,0,.02,0,.62-.17,1.11-.1,1.32-.05Z"/>
  <path class="cls-3" d="M88.1,32c-.02.09-.03.16-.03.16l.56-.58v-1.12l-1.07-.3s-1.82,1.41-.44.99c.06-.02.11-.02.16-.03.91-.19.89.55.83.88Z"/>
  <polygon class="cls-3" points="257.61 21.26 257.61 19.8 258.12 19.8 258.12 19.51 256.64 19.51 256.64 19.8 257.14 19.8 257.14 21.26 257.61 21.26"/>
  <polygon class="cls-3" points="259.36 20.75 259.35 20.75 259.02 19.51 258.33 19.51 258.33 21.26 258.76 21.26 258.76 19.86 258.76 19.86 259.17 21.26 259.54 21.26 259.95 19.86 259.96 19.86 259.96 21.26 260.38 21.26 260.38 19.51 259.69 19.51 259.36 20.75"/>
</svg>